<svg id="Capa_1" enable-background="new 0 0 512 512" height="512" viewBox="0 0 512 512" width="512" xmlns="http://www.w3.org/2000/svg"><g><path d="m96.892 12.729-1-12.729h-14.085c-14.851 0-26.891 12.04-26.891 26.891v458.219c0 14.851 12.039 26.891 26.891 26.891h14.085l1-12.729z" fill="#47a920"/><path d="m95.892 449v63h355.814c2.97 0 5.378-2.408 5.378-5.378v-84.513h-334.301c-14.852 0-26.891 12.04-26.891 26.891z" fill="#4fc123"/><path d="m122.783 423.798c-14.851 0-26.891 12.039-26.891 26.891v25.815h318.167c2.97 0 5.378-2.408 5.378-5.378v-47.328z" fill="#fff"/><path d="m128.896 448c0-2.761 2.239-5 5-5h24.638v-19.202h-35.752c-14.851 0-26.891 12.039-26.891 26.891v25.815h33.005z" fill="#f3f0f3"/><path d="m175.149 443h244.288v15h-244.288z" fill="#f3f0f3"/><path d="m95.892 0v450.689c0-14.851 12.039-26.891 26.891-26.891h334.301v-418.42c0-2.97-2.408-5.378-5.378-5.378z" fill="#80d261"/><path d="m135.529 351.98c-1.558-.126-2.758-1.427-2.758-2.99v-276.87c0-1.563 1.2-2.864 2.758-2.99 9.139-.74 17.331-5.238 23.006-11.917v-57.213h-62.643v450.689c0-14.852 12.039-26.891 26.891-26.891h35.752v-59.901c-5.676-6.679-13.867-11.177-23.006-11.917z" fill="#4fc123"/><path d="m169.478 385.697c-1.563 0-2.864-1.2-2.99-2.758-1.323-16.327-14.632-29.636-30.959-30.959-1.558-.126-2.758-1.427-2.758-2.99v-276.87c0-1.563 1.2-2.864 2.758-2.99 16.327-1.323 29.636-14.632 30.959-30.959.126-1.558 1.427-2.758 2.99-2.758h214.02c1.563 0 2.864 1.2 2.99 2.758 1.323 16.327 14.633 29.636 30.959 30.959 1.558.126 2.758 1.427 2.758 2.99v276.87c0 1.563-1.2 2.864-2.758 2.99-16.326 1.323-29.636 14.632-30.959 30.959-.126 1.558-1.428 2.758-2.99 2.758z" fill="#fed402"/><path d="m209.283 382.939c-1.323-16.327-14.632-29.636-30.959-30.959-1.558-.126-2.758-1.427-2.758-2.99v-136.966l-12.499-13.172c-1.886-1.988-1.886-5.104 0-7.091l12.499-13.172v-106.469c0-1.563 1.2-2.864 2.758-2.99 16.327-1.323 29.636-14.632 30.959-30.959.126-1.558 1.427-2.758 2.99-2.758h-42.795c-1.563 0-2.864 1.2-2.99 2.758-1.323 16.327-14.632 29.636-30.959 30.959-1.558.126-2.758 1.427-2.758 2.99v276.87c0 1.563 1.2 2.864 2.758 2.99 16.327 1.323 29.636 14.632 30.959 30.959.126 1.558 1.427 2.758 2.99 2.758h42.795c-1.563 0-2.864-1.2-2.99-2.758z" fill="#fac600"/><g><path d="m280.033 81.885 29.746 28.226c.923.876 2.138 1.379 3.411 1.413l40.992 1.075c2.739.072 4.942 2.275 5.014 5.014l1.075 40.992c.033 1.272.537 2.487 1.413 3.411l28.226 29.746c1.886 1.988 1.886 5.104 0 7.091l-28.226 29.746c-.876.923-1.379 2.138-1.413 3.411l-1.075 40.99c-.072 2.739-2.275 4.942-5.014 5.014l-40.992 1.075c-1.272.033-2.487.537-3.411 1.413l-29.746 28.226c-1.987 1.886-5.104 1.886-7.091 0l-29.746-28.226c-.923-.876-2.138-1.379-3.411-1.413l-40.992-1.075c-2.739-.072-4.942-2.275-5.014-5.014l-1.075-40.992c-.033-1.272-.537-2.487-1.413-3.411l-28.226-29.746c-1.886-1.988-1.886-5.104 0-7.091l28.226-29.746c.876-.923 1.379-2.138 1.413-3.411l1.075-40.992c.072-2.739 2.275-4.942 5.014-5.014l40.992-1.075c1.272-.033 2.487-.537 3.411-1.413l29.746-28.226c1.988-1.884 5.104-1.884 7.091.002z" fill="#fff"/><path d="m223.569 273-1.075-40.992c-.033-1.272-.537-2.487-1.413-3.411l-28.226-29.746c-1.886-1.987-1.886-5.104 0-7.091l28.226-29.745c.876-.923 1.379-2.138 1.413-3.411l1.075-40.992c.049-1.861 1.094-3.456 2.61-4.322l.029-1.411-27.414.719c-2.739.072-4.942 2.275-5.014 5.014l-1.075 40.992c-.033 1.272-.537 2.487-1.413 3.411l-28.226 29.745c-1.886 1.988-1.886 5.104 0 7.091l28.226 29.746c.876.923 1.379 2.138 1.413 3.411l1.075 40.992c.072 2.739 2.275 4.942 5.014 5.014l27.417.719-.029-1.409c-1.518-.866-2.565-2.461-2.613-4.324z" fill="#f3f0f3"/><path d="m299.269 221.64c-26.649-.732-48.383-22.466-49.114-49.115-.311-11.332 3.112-21.848 9.125-30.415 1.658-2.362-.729-5.502-3.446-4.53-24.743 8.85-42.14 33.139-40.557 61.271 1.739 30.901 26.766 55.928 57.667 57.667 28.131 1.583 52.42-15.814 61.271-40.557.972-2.717-2.168-5.104-4.53-3.446-8.568 6.012-19.084 9.436-30.416 9.125z" fill="#fed402"/><path d="m286.555 242.906c-30.901-1.739-55.928-26.766-57.667-57.667-.833-14.806 3.596-28.544 11.583-39.531-16.207 11.782-26.423 31.302-25.194 53.142 1.739 30.901 26.766 55.928 57.667 57.667 21.84 1.229 41.36-8.986 53.141-25.193-10.987 7.986-24.725 12.416-39.53 11.582z" fill="#fac600"/><path d="m305.939 146.514 5.419 8.875c.416.682 1.088 1.17 1.865 1.355l10.116 2.411c2.183.52 3.043 3.166 1.582 4.87l-6.766 7.897c-.52.607-.776 1.396-.712 2.192l.833 10.366c.18 2.237-2.071 3.872-4.143 3.01l-9.601-3.995c-.738-.307-1.567-.307-2.305 0l-9.601 3.995c-2.072.862-4.323-.773-4.143-3.01l.833-10.366c.064-.796-.192-1.586-.712-2.192l-6.766-7.897c-1.46-1.704-.601-4.35 1.582-4.87l10.116-2.411c.777-.185 1.448-.673 1.865-1.355l5.419-8.875c1.168-1.916 3.949-1.916 5.119 0z" fill="#fed402"/></g><path d="m175.149 485.412v-42.412h-41.252c-2.761 0-5 2.239-5 5v37.412c0 2.282 2.447 3.729 4.446 2.628l18.68-10.281 18.68 10.281c1.998 1.101 4.446-.346 4.446-2.628z" fill="#fd4755"/><g><path d="m339.738 352.777h-126.501c-4.142 0-7.5-3.358-7.5-7.5s3.358-7.5 7.5-7.5h126.501c4.143 0 7.5 3.358 7.5 7.5s-3.357 7.5-7.5 7.5z" fill="#fff"/></g></g></svg>