<svg id="Capa_1" enable-background="new 0 0 512 512" height="512" viewBox="0 0 512 512" width="512" xmlns="http://www.w3.org/2000/svg"><g><path d="m445.482 511.998h-336.468l-2.986-4.005h-7.523v-504.672h6.159l4.35-3.319h225.28l3.463 3.319h34.665l3.895-3.319h69.166c7.938 0 14.373 6.435 14.373 14.373v483.25c-.001 7.938-6.436 14.373-14.374 14.373z" fill="#6ed5a1"/><path d="m109.014 511.998h-22.392c-19.041 0-34.477-15.436-34.477-34.477v-443.042c0-19.041 15.436-34.477 34.477-34.477h22.392z" fill="#e2f6eb"/><path d="m87.996 0h21.017v512h-21.017z" fill="#ceefdd"/><path d="m459.854 14.379v483.242c0 7.937-6.432 14.379-14.369 14.379h-20.615c7.937 0 14.369-6.442 14.369-14.379v-483.242c0-7.937-6.432-14.379-14.369-14.379h20.615c7.937 0 14.369 6.442 14.369 14.379z" fill="#46cc8d"/><path d="m421.612 85.157v341.676c0 4.171-2.926 7.746-7.003 8.626-18.396 3.974-33.243 17.464-39.14 35.068-1.194 3.564-4.573 5.934-8.332 5.934h-165.405c-3.759 0-7.138-2.37-8.332-5.934-5.897-17.604-20.744-31.093-39.14-35.068-4.076-.881-7.003-4.456-7.003-8.626v-341.676c0-4.171 2.926-7.746 7.003-8.626 18.395-3.974 33.242-17.462 39.139-35.058 1.194-3.563 4.574-5.933 8.332-5.933h165.408c3.758 0 7.137 2.369 8.332 5.933 5.897 17.596 20.744 31.084 39.139 35.058 4.076.88 7.002 4.455 7.002 8.626z" fill="#e2f6eb"/><path d="m421.612 85.162v341.667c0 4.175-2.927 7.751-6.999 8.627-18.399 3.979-33.242 17.471-39.148 35.067-1.185 3.566-4.566 5.937-8.329 5.937h-20.966c3.762 0 8.205-2.175 8.339-5.937.794-23.048 20.739-48.466 39.138-52.435 4.072-.886 6.999-4.463 6.999-8.627v-307.6c0-4.175-2.927-7.741-6.999-8.627-18.399-3.968-42.632-30.418-39.138-51.765.598-3.7-4.577-5.927-8.339-5.927h20.966c3.762 0 7.143 2.371 8.329 5.927 5.906 17.605 20.749 31.088 39.148 35.067 4.072.874 6.999 4.451 6.999 8.626z" fill="#ceefdd"/><path d="m355.305.002h-21.011v94.442c0 2.13 2.098 3.625 4.111 2.93l15.889-5.483c.655-.226 1.367-.226 2.022 0l15.889 5.483c2.013.695 4.111-.801 4.111-2.93v-94.442z" fill="#fece85"/><path d="m376.321 0v94.449c0 2.123-2.103 3.618-4.113 2.927l-15.894-5.484c-.33-.113-.66-.175-1.01-.175v-91.717z" fill="#fec165"/><g><path d="m393.429 296.008c-16.137 42.464-57.212 72.642-105.34 72.642-62.214 0-112.65-50.436-112.65-112.65s50.436-112.65 112.65-112.65c.913 0 1.832.013 2.739.032-31.245 14.973-52.815 46.893-52.815 83.848 0 51.323 41.602 92.925 92.925 92.925 24.059 0 45.988-9.142 62.491-24.147z" fill="#fece85"/><path d="m393.427 296.004c-3.209 8.438-7.392 16.388-12.44 23.708-15.451 8.555-33.488 13.458-52.734 13.458-57.295 0-103.746-43.458-103.746-97.066 0-35.868 20.796-67.193 51.715-83.996-23.167 16.902-38.212 44.26-38.212 75.126 0 51.319 41.601 92.92 92.929 92.92 24.06 0 45.983-9.141 62.488-24.15z" fill="#fec165"/><path d="m330.299 178.137 10.108 20.481c.563 1.141 1.651 1.931 2.91 2.114l22.602 3.284c3.17.461 4.436 4.356 2.142 6.592l-16.355 15.942c-.911.888-1.326 2.167-1.111 3.421l3.861 22.511c.541 3.157-2.772 5.565-5.607 4.074l-20.216-10.628c-1.126-.592-2.471-.592-3.597 0l-20.216 10.628c-2.835 1.491-6.149-.917-5.607-4.074l3.861-22.511c.215-1.254-.201-2.533-1.111-3.421l-16.355-15.942c-2.294-2.236-1.028-6.131 2.142-6.592l22.602-3.284c1.259-.183 2.347-.973 2.91-2.114l10.108-20.481c1.416-2.872 5.512-2.872 6.929 0z" fill="#fece85"/><path d="m351.704 226.549c-.91.892-1.325 2.172-1.109 3.425l3.858 22.509c.541 3.155-2.767 5.562-5.607 4.074l-11.998-6.31c0-.198-.018-.415-.054-.631l-4.192-24.402c-.225-1.361.225-2.74 1.208-3.705l17.731-17.28c.64-.622 1.018-1.37 1.181-2.136l13.197 1.92c3.173.46 4.435 4.363 2.145 6.599z" fill="#fec165"/></g></g></svg>