<svg id="Capa_1" enable-background="new 0 0 512 512" height="512" viewBox="0 0 512 512" width="512" xmlns="http://www.w3.org/2000/svg"><g><g><path d="m218.027 468.738 29.126 41.12c2.023 2.856 6.261 2.856 8.283 0l29.126-41.12z" fill="#fed402"/><g><path d="m218.735 469.738 28.418 40.12c2.023 2.856 6.261 2.856 8.283 0l6.504-9.183-21.914-30.938h-21.291z" fill="#fac600"/></g><path d="m251.294 47.581c2.567 0 5.074.259 7.5.743v-40.824c0-4.142-3.357-7.5-7.5-7.5s-7.5 3.358-7.5 7.5v40.824c2.426-.484 4.933-.743 7.5-.743z" fill="#a82975"/><g><path d="m289.563 77.166c-3.942-17.505-19.573-30.584-38.268-30.584s-34.326 13.08-38.268 30.584z" fill="#fed402"/></g><g><path d="m245.04 76.165c2.978-11.753 11.243-21.397 22.135-26.226-4.857-2.153-10.227-3.359-15.881-3.359-18.339 0-33.736 12.583-38.037 29.584h31.783z" fill="#fac600"/></g><path d="m160.345 436.176 26.021 28.585c2.885 3.17 6.973 4.977 11.26 4.977h107.337c4.286 0 8.374-1.807 11.26-4.977l26.021-28.585z" fill="#c53287"/><g><path d="m203.612 437.176h-42.356l25.111 27.585c2.886 3.17 6.973 4.976 11.26 4.976h42.356c-4.286 0-8.374-1.807-11.26-4.976z" fill="#a82975"/></g><path d="m361.919 114.223-35.924-33.905c-2.826-2.667-6.565-4.153-10.451-4.153h-128.499c-3.886 0-7.625 1.486-10.451 4.153l-35.924 33.905z" fill="#80d261"/><path d="m291.228 114.223-14.557-38.057h-50.754l-14.557 38.057z" fill="#c53287"/><g><path d="m237.765 113.223 14.174-37.057h-26.022l-14.174 37.057z" fill="#a82975"/></g><g><path d="m173.633 113.223 34.864-32.905c2.826-2.667 6.565-4.153 10.451-4.153h-31.903c-3.886 0-7.625 1.486-10.451 4.153l-34.864 32.905z" fill="#4fc123"/></g><path d="m350.829 216.836 25.896-35.243 1-3.05v-29.991h-252.862v29.991l1 3.05 25.896 35.244c.25.34.388.761.388 1.184v100.519c0 .418-.128.82-.371 1.161l-25.913 36.4-1 3.129v42.619h252.863v-42.619l-1-3.129-25.914-36.4c-.242-.34-.37-.742-.37-1.16v-100.52c-.001-.423.137-.844.387-1.185z" fill="#c53287"/><g><path d="m349.441 218.02v100.52c0 .624.194 1.232.556 1.74l27.729 38.949v-180.686l-27.702 37.701c-.379.515-.583 1.137-.583 1.776z" fill="#fed402"/></g><g fill="#a82975"><path d="m124.863 359.229v41.619h28.285v-82.308c0 .624-.194 1.232-.556 1.74z"/><path d="m124.863 149.552v28.992-.001l27.702 37.701c.378.515.583 1.137.583 1.776v-68.469h-28.285z"/></g><path d="m314.23 149.552h27.038v251.296h-27.038z" fill="#a82975"/><path d="m188.359 148.552h125.871v253.296h-125.871z" fill="#4fc123"/><g><path d="m188.359 149.552h28.285v251.296h-28.285z" fill="#47a920"/></g><g><path d="m223.009 219.642v100.54c0 .619.191 1.223.548 1.728l25.285 35.87c1.195 1.695 3.709 1.695 4.904 0l25.285-35.87c.357-.506.548-1.11.548-1.728v-100.54c0-.631-.199-1.246-.569-1.758l-25.285-34.965c-1.198-1.656-3.664-1.656-4.862 0l-25.285 34.965c-.369.512-.569 1.127-.569 1.758z" fill="#fed402"/></g><path d="m244.978 321.911c-.356-.506-.548-1.109-.548-1.728v-100.54c0-.631.199-1.246.569-1.758l17.005-23.516-8.279-11.449c-1.198-1.656-3.664-1.656-4.862 0l-25.285 34.965c-.37.511-.569 1.127-.569 1.758v100.54c0 .619.191 1.223.548 1.728l25.285 35.87c1.195 1.695 3.709 1.695 4.904 0l8.258-11.715z" fill="#fac600"/><g><path d="m400.989 437.176h-299.389c-2.803 0-5.075-2.272-5.075-5.075v-26.178c0-2.803 2.272-5.075 5.075-5.075h299.388c2.803 0 5.075 2.272 5.075 5.075v26.178c.001 2.803-2.271 5.075-5.074 5.075z" fill="#fed402"/></g><g><path d="m149.415 432.101v-26.178c0-2.803 2.272-5.075 5.075-5.075h-52.89c-2.803 0-5.075 2.272-5.075 5.075v26.178c0 2.803 2.272 5.075 5.075 5.075h52.891c-2.803 0-5.076-2.272-5.076-5.075z" fill="#fac600"/></g><g><path d="m400.989 149.552h-299.389c-2.803 0-5.075-2.272-5.075-5.075v-26.178c0-2.803 2.272-5.075 5.075-5.075h299.388c2.803 0 5.075 2.272 5.075 5.075v26.178c.001 2.802-2.271 5.075-5.074 5.075z" fill="#fed402"/></g><g><path d="m149.415 144.476v-26.178c0-2.803 2.272-5.075 5.075-5.075h-52.89c-2.803 0-5.075 2.272-5.075 5.075v26.178c0 2.803 2.272 5.075 5.075 5.075h52.891c-2.803.001-5.076-2.272-5.076-5.075z" fill="#fac600"/></g><g><path d="m153.148 218.02v100.52c0 .624-.194 1.232-.556 1.74l-27.729 38.949v-180.686l27.702 37.701c.379.515.583 1.137.583 1.776z" fill="#fed402"/></g></g><g><path d="m430.646 159.981c-4.54 11.106-10.181 16.748-21.288 21.288-4.195 1.715-4.195 7.669 0 9.383 11.106 4.54 16.748 10.181 21.288 21.288 1.715 4.195 7.669 4.195 9.383 0 4.54-11.106 10.181-16.748 21.288-21.288 4.195-1.715 4.195-7.669 0-9.383-11.106-4.54-16.748-10.181-21.288-21.288-1.714-4.195-7.668-4.195-9.383 0z" fill="#fed402"/></g><g><path d="m443.083 199.503c-4.54-11.106-10.181-16.748-21.288-21.288-1.209-.494-2.058-1.345-2.57-2.341-2.743 2.058-5.962 3.798-9.867 5.394-4.195 1.715-4.195 7.669 0 9.383 11.106 4.54 16.748 10.181 21.288 21.288 1.715 4.195 7.668 4.195 9.383 0 1.596-3.905 3.336-7.124 5.394-9.867-.995-.511-1.846-1.36-2.34-2.569z" fill="#fac600"/></g><g><path d="m68.894 349.337c-3.933 10.682-8.662 15.411-19.343 19.343-2.685.988-2.685 4.747 0 5.735 10.682 3.933 15.411 8.662 19.343 19.343.988 2.685 4.747 2.685 5.735 0 3.933-10.682 8.662-15.411 19.343-19.343 2.685-.988 2.685-4.747 0-5.735-10.682-3.933-15.411-8.661-19.343-19.343-.989-2.685-4.747-2.685-5.735 0z" fill="#fed402"/></g><g><path d="m78.011 384.641c-3.933-10.682-8.661-15.411-19.343-19.343-.363-.134-.672-.321-.937-.542-2.281 1.474-4.956 2.738-8.181 3.925-2.685.989-2.685 4.747 0 5.735 10.682 3.933 15.411 8.661 19.344 19.343.988 2.685 4.747 2.685 5.735 0 1.187-3.224 2.451-5.899 3.925-8.181-.222-.265-.409-.574-.543-.937z" fill="#fac600"/></g><g><path d="m361.272 465.565c-3.933 10.682-8.662 15.411-19.343 19.343-2.685.988-2.685 4.747 0 5.735 10.682 3.933 15.411 8.662 19.343 19.343.988 2.685 4.747 2.685 5.735 0 3.933-10.682 8.662-15.411 19.343-19.343 2.685-.988 2.685-4.747 0-5.735-10.682-3.933-15.411-8.661-19.343-19.343-.988-2.685-4.747-2.685-5.735 0z" fill="#fed402"/></g><g><path d="m370.814 500.444c-3.933-10.682-8.662-15.411-19.344-19.344-.32-.118-.598-.277-.842-.463-2.392 1.624-5.228 2.992-8.701 4.271-2.685.989-2.685 4.747 0 5.735 10.682 3.933 15.411 8.662 19.344 19.344.988 2.685 4.747 2.685 5.735 0 1.279-3.473 2.646-6.309 4.271-8.701-.186-.244-.345-.523-.463-.842z" fill="#fac600"/></g></g></svg>